<?xml version="1.0" encoding="utf-8"?>
<!-- Generator: Adobe Illustrator 24.2.1, SVG Export Plug-In . SVG Version: 6.00 Build 0)  -->
<svg version="1.1" xmlns="http://www.w3.org/2000/svg" xmlns:xlink="http://www.w3.org/1999/xlink" x="0px" y="0px"
	 viewBox="0 0 500 60" style="enable-background:new 0 0 500 60;" xml:space="preserve">
<style type="text/css">
	.st0{fill:url(#SVGID_1_);}
	.st1{fill:url(#SVGID_2_);}
	.st2{fill:url(#SVGID_3_);}
	.st3{fill:url(#SVGID_4_);}
	.st4{fill:url(#SVGID_5_);}
	.st5{fill:url(#SVGID_6_);}
	.st6{fill:url(#SVGID_7_);}
	.st7{fill:url(#SVGID_8_);}
	.st8{fill:url(#SVGID_9_);}
	.st9{fill:url(#SVGID_10_);}
	.st10{fill:url(#SVGID_11_);}
	.st11{fill:url(#SVGID_12_);}
	.st12{fill:url(#SVGID_13_);}
	.st13{fill:url(#SVGID_14_);}
	.st14{fill:url(#SVGID_15_);}
	.st15{fill:url(#SVGID_16_);}
	.st16{fill:url(#SVGID_17_);}
	.st17{fill:url(#SVGID_18_);}
	.st18{fill:url(#SVGID_19_);}
	.st19{fill:url(#SVGID_20_);}
	.st20{fill:url(#SVGID_21_);}
</style>
<g id="Capa_32">
	<g>
		<g>
			<linearGradient id="SVGID_1_" gradientUnits="userSpaceOnUse" x1="31.1898" y1="-1389.7457" x2="422.7171" y2="-1389.7457">
				<stop  offset="0" style="stop-color:#E73926"/>
				<stop  offset="0.1747" style="stop-color:#ED6B06"/>
				<stop  offset="0.5214" style="stop-color:#FFDE00"/>
				<stop  offset="0.67" style="stop-color:#2FAA51"/>
				<stop  offset="0.7807" style="stop-color:#0095DB"/>
				<stop  offset="1" style="stop-color:#AD378C"/>
			</linearGradient>
			<polygon class="st0" points="444.92,-1544.58 289.91,-1264.94 306.56,-1234.91 478.21,-1544.58 			"/>
			<linearGradient id="SVGID_2_" gradientUnits="userSpaceOnUse" x1="31.1898" y1="-1417.5533" x2="422.7171" y2="-1417.5533">
				<stop  offset="0" style="stop-color:#E73926"/>
				<stop  offset="0.1747" style="stop-color:#ED6B06"/>
				<stop  offset="0.5214" style="stop-color:#FFDE00"/>
				<stop  offset="0.67" style="stop-color:#2FAA51"/>
				<stop  offset="0.7807" style="stop-color:#0095DB"/>
				<stop  offset="1" style="stop-color:#AD378C"/>
			</linearGradient>
			<path class="st1" d="M416.55-1544.58h-33.29l-78.23,141.13L250-1502.73l-55.03,99.28l-78.23-141.13H83.45l140.82,254.05
				l25.73-46.42v0l25.73,46.42L416.55-1544.58z M250-1397.01L250-1397.01l-25.73,46.42l-12.65-22.83l38.39-69.25v0l38.39,69.25
				l-12.65,22.83L250-1397.01z"/>
			<linearGradient id="SVGID_3_" gradientUnits="userSpaceOnUse" x1="31.1898" y1="-1389.7455" x2="422.7171" y2="-1389.7455">
				<stop  offset="0" style="stop-color:#E73926"/>
				<stop  offset="0.1747" style="stop-color:#ED6B06"/>
				<stop  offset="0.5214" style="stop-color:#FFDE00"/>
				<stop  offset="0.67" style="stop-color:#2FAA51"/>
				<stop  offset="0.7807" style="stop-color:#0095DB"/>
				<stop  offset="1" style="stop-color:#AD378C"/>
			</linearGradient>
			<polygon class="st2" points="55.08,-1544.58 21.79,-1544.58 193.44,-1234.91 210.08,-1264.94 			"/>
		</g>
		<g>
			<linearGradient id="SVGID_4_" gradientUnits="userSpaceOnUse" x1="247.0418" y1="-1389.7457" x2="452.1046" y2="-1389.7457">
				<stop  offset="0" style="stop-color:#E73926"/>
				<stop  offset="0.1747" style="stop-color:#ED6B06"/>
				<stop  offset="0.3815" style="stop-color:#FFDE00"/>
				<stop  offset="0.5829" style="stop-color:#2FAA51"/>
				<stop  offset="0.7807" style="stop-color:#0095DB"/>
				<stop  offset="1" style="stop-color:#AD378C"/>
			</linearGradient>
			<polygon class="st3" points="444.92,-1544.58 289.91,-1264.94 306.56,-1234.91 478.21,-1544.58 			"/>
			<linearGradient id="SVGID_5_" gradientUnits="userSpaceOnUse" x1="247.0418" y1="-1417.5537" x2="452.1046" y2="-1417.5537">
				<stop  offset="0" style="stop-color:#E73926"/>
				<stop  offset="0.1747" style="stop-color:#ED6B06"/>
				<stop  offset="0.3815" style="stop-color:#FFDE00"/>
				<stop  offset="0.5829" style="stop-color:#2FAA51"/>
				<stop  offset="0.7807" style="stop-color:#0095DB"/>
				<stop  offset="1" style="stop-color:#AD378C"/>
			</linearGradient>
			<polygon class="st4" points="383.26,-1544.58 305.03,-1403.45 250,-1502.73 250,-1442.67 288.39,-1373.42 275.73,-1350.59 
				250,-1397.01 250,-1336.95 275.73,-1290.53 416.55,-1544.58 			"/>
		</g>
		<path d="M143.78-1188.83l-2.14,1c-0.2-0.83-0.68-1.5-1.43-2.01c-0.76-0.51-1.59-0.77-2.49-0.77c-0.67,0-1.25,0.13-1.76,0.39
			c-0.5,0.26-0.92,0.69-1.24,1.28c-0.22,0.49-0.32,0.98-0.32,1.49c0,1.21,0.57,2.12,1.7,2.73l5.14,1.89
			c0.94,0.52,1.65,1.23,2.15,2.12c0.5,0.89,0.74,1.84,0.74,2.85c0,0.86-0.18,1.69-0.53,2.48c-0.35,0.79-0.88,1.49-1.58,2.1
			c-1.26,0.88-2.68,1.32-4.24,1.32c-1.41,0-2.69-0.35-3.87-1.05c-0.63-0.47-1.11-1-1.45-1.58c-0.33-0.59-0.64-1.35-0.91-2.28
			l2.19-1.11c0,1.14,0.41,2.08,1.22,2.84s1.77,1.14,2.87,1.14c0.43,0,0.86-0.07,1.28-0.2c0.42-0.13,0.84-0.35,1.24-0.66
			c0.41-0.3,0.73-0.72,0.97-1.24c0.24-0.52,0.36-1.07,0.36-1.64c0-0.86-0.19-1.5-0.58-1.91c-0.39-0.41-0.69-0.69-0.92-0.84
			c-0.23-0.14-0.68-0.37-1.37-0.67l-3.46-1.22c-1.03-0.49-1.86-1.15-2.49-1.99c-0.63-0.84-0.95-1.79-0.95-2.85
			c0-0.27,0.07-0.76,0.2-1.47c0.13-0.71,0.56-1.46,1.28-2.26c0.72-0.79,1.51-1.28,2.37-1.45c0.86-0.17,1.62-0.26,2.28-0.26
			c0.29,0,0.51,0.01,0.68,0.03c0.16,0.02,0.58,0.09,1.26,0.23c0.68,0.14,1.4,0.53,2.16,1.18
			C142.93-1190.59,143.47-1189.79,143.78-1188.83z"/>
		<path d="M175.42-1187.36c0,0.32,0,0.56,0,0.7c0,1.4-0.45,2.6-1.35,3.6c-0.9,1-2.08,1.57-3.53,1.71h-4.18v9.03h-2.46v-20.01
			l6.49,0.08c1.42,0.16,2.62,0.68,3.58,1.55C174.94-1189.82,175.42-1188.71,175.42-1187.36z M170.93-1189.86
			c-0.41-0.14-0.86-0.25-1.32-0.32h-3.24v6.84h4.03c0.77-0.23,1.39-0.68,1.84-1.33c0.45-0.66,0.68-1.38,0.68-2.17
			c0-0.66-0.16-1.27-0.49-1.8C172.09-1189.19,171.6-1189.59,170.93-1189.86z"/>
		<path d="M206.06-1172.31h-10.87v-20.01h10.87v2.16h-8.46v5.92h8.46v2.05h-8.46v7.71h8.46V-1172.31z"/>
		<path d="M242.24-1173.21c-0.94,0.4-1.89,0.7-2.85,0.92c-0.96,0.22-1.94,0.32-2.93,0.32c-1.39,0-2.71-0.23-3.97-0.68
			c-1.26-0.45-2.42-1.14-3.46-2.05c-2.13-2.16-3.19-4.71-3.19-7.65c0-1.91,0.42-3.55,1.26-4.92c0.84-1.37,1.66-2.42,2.46-3.15
			c0.8-0.73,1.57-1.24,2.3-1.54c0.73-0.3,1.32-0.5,1.78-0.61c0.46-0.11,0.93-0.19,1.41-0.24c0.48-0.05,0.94-0.08,1.39-0.08
			c0.67,0,1.37,0.06,2.11,0.18c0.74,0.12,1.48,0.28,2.22,0.5l1.49,0.68v2.65c-1.68-1.19-3.51-1.78-5.52-1.78
			c-1.35,0-2.61,0.28-3.79,0.82c-1.17,0.55-2.18,1.39-3.03,2.53c-0.49,0.72-0.86,1.51-1.12,2.35c-0.26,0.85-0.39,1.71-0.39,2.6
			c0,1.53,0.38,2.97,1.15,4.31c0.77,1.34,1.82,2.35,3.16,3.03c1.34,0.68,2.71,1.01,4.1,1.01c1.5,0,2.84-0.37,4.03-1.11l1.41-0.89
			V-1173.21z"/>
		<linearGradient id="SVGID_6_" gradientUnits="userSpaceOnUse" x1="262.015" y1="-1182.3167" x2="271.0685" y2="-1182.3167">
			<stop  offset="0" style="stop-color:#E73926"/>
			<stop  offset="0.1747" style="stop-color:#ED6B06"/>
			<stop  offset="0.3815" style="stop-color:#FFDE00"/>
			<stop  offset="0.5829" style="stop-color:#2FAA51"/>
			<stop  offset="0.7807" style="stop-color:#0095DB"/>
			<stop  offset="0.9613" style="stop-color:#AD378C"/>
		</linearGradient>
		<path class="st5" d="M264.23-1172.51l-2.21-0.8l6.84-18.8l2.21,0.8L264.23-1172.51z"/>
		<polygon points="290.84,-1183.04 290.84,-1182.16 311.42,-1173.11 311.41,-1175.91 294.75,-1182.6 311.41,-1189.29 
			311.42,-1192.09 		"/>
		<polygon points="476.35,-1182.16 476.35,-1183.04 455.78,-1192.09 455.78,-1189.29 472.44,-1182.6 455.78,-1175.91 
			455.78,-1173.11 		"/>
		<path d="M341.06-1172.31h-9.87v-20.01h2.49v17.84h7.38V-1172.31z"/>
		<linearGradient id="SVGID_7_" gradientUnits="userSpaceOnUse" x1="360.8286" y1="-1182.3167" x2="369.8821" y2="-1182.3167">
			<stop  offset="0" style="stop-color:#E73926"/>
			<stop  offset="0.1747" style="stop-color:#ED6B06"/>
			<stop  offset="0.3815" style="stop-color:#FFDE00"/>
			<stop  offset="0.5829" style="stop-color:#2FAA51"/>
			<stop  offset="0.7807" style="stop-color:#0095DB"/>
			<stop  offset="0.9613" style="stop-color:#AD378C"/>
		</linearGradient>
		<path class="st6" d="M363.04-1172.51l-2.21-0.8l6.84-18.8l2.21,0.8L363.04-1172.51z"/>
		<path d="M401.87-1188.83l-2.14,1c-0.2-0.83-0.68-1.5-1.43-2.01s-1.59-0.77-2.49-0.77c-0.67,0-1.25,0.13-1.76,0.39
			c-0.5,0.26-0.92,0.69-1.24,1.28c-0.22,0.49-0.32,0.98-0.32,1.49c0,1.21,0.57,2.12,1.7,2.73l5.14,1.89
			c0.94,0.52,1.65,1.23,2.15,2.12c0.5,0.89,0.74,1.84,0.74,2.85c0,0.86-0.18,1.69-0.53,2.48c-0.35,0.79-0.88,1.49-1.58,2.1
			c-1.26,0.88-2.68,1.32-4.24,1.32c-1.41,0-2.69-0.35-3.87-1.05c-0.63-0.47-1.11-1-1.45-1.58c-0.33-0.59-0.64-1.35-0.91-2.28
			l2.19-1.11c0,1.14,0.41,2.08,1.22,2.84c0.81,0.76,1.77,1.14,2.87,1.14c0.43,0,0.86-0.07,1.28-0.2c0.42-0.13,0.84-0.35,1.24-0.66
			c0.41-0.3,0.73-0.72,0.97-1.24c0.24-0.52,0.37-1.07,0.37-1.64c0-0.86-0.19-1.5-0.58-1.91c-0.39-0.41-0.69-0.69-0.92-0.84
			c-0.23-0.14-0.68-0.37-1.37-0.67l-3.46-1.22c-1.03-0.49-1.86-1.15-2.49-1.99c-0.63-0.84-0.95-1.79-0.95-2.85
			c0-0.27,0.07-0.76,0.2-1.47c0.14-0.71,0.56-1.46,1.28-2.26c0.72-0.79,1.51-1.28,2.37-1.45c0.86-0.17,1.62-0.26,2.28-0.26
			c0.29,0,0.51,0.01,0.68,0.03c0.16,0.02,0.58,0.09,1.26,0.23c0.68,0.14,1.4,0.53,2.16,1.18
			C401.03-1190.59,401.57-1189.79,401.87-1188.83z"/>
		<path d="M436-1190.21h-5.76v17.9h-2.49v-17.9H422v-2.11H436V-1190.21z"/>
		<path d="M48.89-1192.68l-7.16,20.16l-0.71,0l-4.9-15.44l-4.83,15.44l-0.69-0.01l-7.52-20.16h2.64l5.13,15.59l4.99-15.8h0.58
			l5.05,15.8l4.91-15.59H48.89z"/>
		<path d="M79.61-1172.51H68.66v-20.16h10.95v2.18h-8.53v5.97h8.53v2.07h-8.53v7.77h8.53V-1172.51z"/>
		<path d="M110.29-1185.09c-0.53,0.92-1.32,1.54-2.37,1.84c1.22,0.24,2.17,0.84,2.85,1.8c0.68,0.97,1.02,2.06,1.02,3.28
			c0,0.91-0.18,1.76-0.53,2.54c-0.35,0.78-0.89,1.45-1.59,1.99c-0.44,0.27-0.92,0.51-1.44,0.7c-0.53,0.19-1.06,0.33-1.61,0.42h-7.22
			v-20.16l6.27,0.08c1.45,0,2.7,0.52,3.73,1.57c1.04,1.05,1.55,2.25,1.55,3.6C110.94-1186.63,110.72-1185.85,110.29-1185.09z
			 M108.41-1187.93c-0.2-0.85-0.65-1.5-1.35-1.96c-0.7-0.46-1.5-0.69-2.41-0.69h-2.94v6.76h3.76c0.94-0.14,1.68-0.52,2.21-1.14
			s0.79-1.37,0.79-2.27c0-0.11-0.01-0.23-0.03-0.38C108.41-1187.75,108.41-1187.86,108.41-1187.93z M107.86-1181.12
			c-0.33-0.22-0.69-0.4-1.09-0.54c-0.4-0.14-0.79-0.21-1.17-0.21h-3.9v7.44l4.39-0.05c0.98-0.13,1.75-0.54,2.32-1.24
			c0.56-0.7,0.84-1.52,0.84-2.45c0-0.59-0.11-1.13-0.34-1.63C108.68-1180.29,108.33-1180.73,107.86-1181.12z"/>
	</g>
</g>
<g id="Capa_2">
	<g>
		<g>
			<linearGradient id="SVGID_8_" gradientUnits="userSpaceOnUse" x1="31.1898" y1="-364.252" x2="422.7171" y2="-364.252">
				<stop  offset="0" style="stop-color:#E73926"/>
				<stop  offset="0.1747" style="stop-color:#ED6B06"/>
				<stop  offset="0.5214" style="stop-color:#FFDE00"/>
				<stop  offset="0.67" style="stop-color:#2FAA51"/>
				<stop  offset="0.7807" style="stop-color:#0095DB"/>
				<stop  offset="1" style="stop-color:#AD378C"/>
			</linearGradient>
			<polygon class="st7" points="444.92,-519.08 289.91,-239.45 306.56,-209.42 478.21,-519.08 			"/>
			<linearGradient id="SVGID_9_" gradientUnits="userSpaceOnUse" x1="31.1898" y1="-392.0595" x2="422.7171" y2="-392.0595">
				<stop  offset="0" style="stop-color:#E73926"/>
				<stop  offset="0.1747" style="stop-color:#ED6B06"/>
				<stop  offset="0.5214" style="stop-color:#FFDE00"/>
				<stop  offset="0.67" style="stop-color:#2FAA51"/>
				<stop  offset="0.7807" style="stop-color:#0095DB"/>
				<stop  offset="1" style="stop-color:#AD378C"/>
			</linearGradient>
			<path class="st8" d="M416.55-519.08h-33.29l-78.23,141.13L250-477.24l-55.03,99.28l-78.23-141.13H83.45l140.82,254.05L250-311.46
				v0l25.73,46.42L416.55-519.08z M250-371.52L250-371.52l-25.73,46.42l-12.65-22.83L250-417.17v0l38.39,69.25l-12.65,22.83
				L250-371.52z"/>
			<linearGradient id="SVGID_10_" gradientUnits="userSpaceOnUse" x1="31.1898" y1="-364.2516" x2="422.7171" y2="-364.2516">
				<stop  offset="0" style="stop-color:#E73926"/>
				<stop  offset="0.1747" style="stop-color:#ED6B06"/>
				<stop  offset="0.5214" style="stop-color:#FFDE00"/>
				<stop  offset="0.67" style="stop-color:#2FAA51"/>
				<stop  offset="0.7807" style="stop-color:#0095DB"/>
				<stop  offset="1" style="stop-color:#AD378C"/>
			</linearGradient>
			<polygon class="st9" points="55.08,-519.08 21.79,-519.08 193.44,-209.42 210.08,-239.45 			"/>
		</g>
		<g>
			<linearGradient id="SVGID_11_" gradientUnits="userSpaceOnUse" x1="247.0418" y1="-364.252" x2="452.1046" y2="-364.252">
				<stop  offset="0" style="stop-color:#E73926"/>
				<stop  offset="0.1747" style="stop-color:#ED6B06"/>
				<stop  offset="0.3815" style="stop-color:#FFDE00"/>
				<stop  offset="0.5829" style="stop-color:#2FAA51"/>
				<stop  offset="0.7807" style="stop-color:#0095DB"/>
				<stop  offset="1" style="stop-color:#AD378C"/>
			</linearGradient>
			<polygon class="st10" points="444.92,-519.08 289.91,-239.45 306.56,-209.42 478.21,-519.08 			"/>
			<linearGradient id="SVGID_12_" gradientUnits="userSpaceOnUse" x1="247.0418" y1="-392.0598" x2="452.1046" y2="-392.0598">
				<stop  offset="0" style="stop-color:#E73926"/>
				<stop  offset="0.1747" style="stop-color:#ED6B06"/>
				<stop  offset="0.3815" style="stop-color:#FFDE00"/>
				<stop  offset="0.5829" style="stop-color:#2FAA51"/>
				<stop  offset="0.7807" style="stop-color:#0095DB"/>
				<stop  offset="1" style="stop-color:#AD378C"/>
			</linearGradient>
			<polygon class="st11" points="383.26,-519.08 305.03,-377.95 250,-477.24 250,-417.17 288.39,-347.92 275.73,-325.1 250,-371.52 
				250,-311.46 275.73,-265.04 416.55,-519.08 			"/>
		</g>
	</g>
</g>
<g id="Capa_3">
	<g>
		<g>
			<linearGradient id="SVGID_13_" gradientUnits="userSpaceOnUse" x1="7.6027" y1="-813.0275" x2="86.9407" y2="-813.0275">
				<stop  offset="0" style="stop-color:#E73926"/>
				<stop  offset="0.1747" style="stop-color:#ED6B06"/>
				<stop  offset="0.5214" style="stop-color:#FFDE00"/>
				<stop  offset="0.67" style="stop-color:#2FAA51"/>
				<stop  offset="0.7807" style="stop-color:#0095DB"/>
				<stop  offset="1" style="stop-color:#AD378C"/>
			</linearGradient>
			<polygon class="st12" points="91.44,-844.4 60.03,-787.74 63.4,-781.65 98.19,-844.4 			"/>
			<linearGradient id="SVGID_14_" gradientUnits="userSpaceOnUse" x1="7.6027" y1="-818.6624" x2="86.9407" y2="-818.6624">
				<stop  offset="0" style="stop-color:#E73926"/>
				<stop  offset="0.1747" style="stop-color:#ED6B06"/>
				<stop  offset="0.5214" style="stop-color:#FFDE00"/>
				<stop  offset="0.67" style="stop-color:#2FAA51"/>
				<stop  offset="0.7807" style="stop-color:#0095DB"/>
				<stop  offset="1" style="stop-color:#AD378C"/>
			</linearGradient>
			<path class="st13" d="M85.69-844.4h-6.75l-15.85,28.6l-11.15-20.12L40.79-815.8l-15.85-28.6h-6.75l28.54,51.48l5.21-9.41v0
				l5.21,9.41L85.69-844.4z M51.94-814.5L51.94-814.5l-5.21,9.41l-2.56-4.63l7.78-14.03v0l7.78,14.03l-2.56,4.63L51.94-814.5z"/>
			<linearGradient id="SVGID_15_" gradientUnits="userSpaceOnUse" x1="7.6027" y1="-813.0274" x2="86.9407" y2="-813.0274">
				<stop  offset="0" style="stop-color:#E73926"/>
				<stop  offset="0.1747" style="stop-color:#ED6B06"/>
				<stop  offset="0.5214" style="stop-color:#FFDE00"/>
				<stop  offset="0.67" style="stop-color:#2FAA51"/>
				<stop  offset="0.7807" style="stop-color:#0095DB"/>
				<stop  offset="1" style="stop-color:#AD378C"/>
			</linearGradient>
			<polygon class="st14" points="12.44,-844.4 5.7,-844.4 40.48,-781.65 43.85,-787.74 			"/>
		</g>
		<g>
			<linearGradient id="SVGID_16_" gradientUnits="userSpaceOnUse" x1="51.3423" y1="-813.0275" x2="92.8957" y2="-813.0275">
				<stop  offset="0" style="stop-color:#E73926"/>
				<stop  offset="0.1747" style="stop-color:#ED6B06"/>
				<stop  offset="0.3815" style="stop-color:#FFDE00"/>
				<stop  offset="0.5829" style="stop-color:#2FAA51"/>
				<stop  offset="0.7807" style="stop-color:#0095DB"/>
				<stop  offset="1" style="stop-color:#AD378C"/>
			</linearGradient>
			<polygon class="st15" points="91.44,-844.4 60.03,-787.74 63.4,-781.65 98.19,-844.4 			"/>
			<linearGradient id="SVGID_17_" gradientUnits="userSpaceOnUse" x1="51.3423" y1="-818.6624" x2="92.8957" y2="-818.6624">
				<stop  offset="0" style="stop-color:#E73926"/>
				<stop  offset="0.1747" style="stop-color:#ED6B06"/>
				<stop  offset="0.3815" style="stop-color:#FFDE00"/>
				<stop  offset="0.5829" style="stop-color:#2FAA51"/>
				<stop  offset="0.7807" style="stop-color:#0095DB"/>
				<stop  offset="1" style="stop-color:#AD378C"/>
			</linearGradient>
			<polygon class="st16" points="78.95,-844.4 63.09,-815.8 51.94,-835.92 51.94,-823.75 59.72,-809.72 57.16,-805.09 51.94,-814.5 
				51.94,-802.33 57.16,-792.92 85.69,-844.4 			"/>
		</g>
	</g>
	<path d="M205.47-820.54l-2.46,1.15c-0.23-0.96-0.78-1.73-1.65-2.32c-0.87-0.59-1.83-0.89-2.87-0.89c-0.77,0-1.45,0.15-2.03,0.45
		c-0.58,0.3-1.06,0.8-1.43,1.48c-0.25,0.56-0.37,1.13-0.37,1.71c0,1.39,0.65,2.44,1.96,3.15l5.92,2.18c1.08,0.6,1.91,1.42,2.48,2.44
		c0.57,1.03,0.86,2.12,0.86,3.28c0,1-0.2,1.95-0.61,2.86c-0.41,0.91-1.01,1.72-1.82,2.43c-1.46,1.02-3.09,1.52-4.9,1.52
		c-1.62,0-3.11-0.41-4.46-1.22c-0.73-0.54-1.28-1.15-1.67-1.82c-0.38-0.67-0.73-1.55-1.04-2.63l2.53-1.28c0,1.31,0.47,2.4,1.4,3.27
		c0.94,0.87,2.04,1.31,3.31,1.31c0.5,0,0.99-0.08,1.48-0.23c0.49-0.15,0.97-0.41,1.43-0.76c0.47-0.35,0.84-0.83,1.12-1.43
		c0.28-0.6,0.42-1.23,0.42-1.9c0-0.99-0.22-1.73-0.67-2.21c-0.45-0.48-0.8-0.8-1.06-0.96c-0.26-0.17-0.78-0.42-1.57-0.78l-3.99-1.4
		c-1.18-0.56-2.14-1.32-2.87-2.29c-0.73-0.97-1.09-2.06-1.09-3.29c0-0.31,0.08-0.88,0.23-1.7c0.16-0.82,0.65-1.69,1.48-2.6
		c0.83-0.91,1.74-1.47,2.73-1.67c0.99-0.2,1.87-0.3,2.64-0.3c0.33,0,0.59,0.01,0.78,0.03c0.19,0.02,0.67,0.11,1.45,0.26
		c0.78,0.16,1.61,0.61,2.49,1.36C204.49-822.57,205.11-821.64,205.47-820.54z"/>
	<path d="M230.69-818.84c0,0.37,0,0.64,0,0.81c0,1.62-0.52,3-1.55,4.15s-2.39,1.81-4.07,1.98h-4.82v10.42h-2.84v-23.08l7.48,0.09
		c1.64,0.19,3.02,0.78,4.13,1.79C230.14-821.68,230.69-820.4,230.69-818.84z M225.51-821.73c-0.48-0.17-0.99-0.29-1.53-0.37h-3.74
		v7.89h4.65c0.89-0.27,1.6-0.78,2.12-1.54c0.52-0.76,0.78-1.59,0.78-2.5c0-0.77-0.19-1.46-0.56-2.08
		C226.86-820.95,226.28-821.42,225.51-821.73z"/>
	<path d="M254.76-801.49h-12.54v-23.08h12.54v2.49H245v6.83h9.76v2.37H245v8.89h9.76V-801.49z"/>
	<path d="M285.23-802.39c-1.08,0.46-2.18,0.81-3.29,1.06c-1.11,0.25-2.24,0.37-3.38,0.37c-1.6,0-3.13-0.26-4.58-0.78
		c-1.46-0.52-2.79-1.31-3.99-2.37c-2.45-2.49-3.68-5.44-3.68-8.83c0-2.2,0.48-4.1,1.45-5.68c0.97-1.58,1.91-2.79,2.84-3.63
		c0.93-0.84,1.81-1.43,2.65-1.78c0.84-0.34,1.53-0.58,2.06-0.7c0.53-0.13,1.07-0.22,1.62-0.28c0.55-0.06,1.09-0.09,1.61-0.09
		c0.77,0,1.58,0.07,2.43,0.2c0.85,0.14,1.71,0.33,2.56,0.58l1.71,0.78v3.06c-1.93-1.37-4.05-2.06-6.36-2.06
		c-1.56,0-3.02,0.32-4.37,0.95c-1.35,0.63-2.52,1.61-3.49,2.92c-0.56,0.83-0.99,1.74-1.29,2.71c-0.3,0.98-0.45,1.97-0.45,2.99
		c0,1.77,0.44,3.43,1.33,4.97c0.88,1.55,2.1,2.71,3.65,3.49c1.55,0.78,3.12,1.17,4.72,1.17c1.73,0,3.28-0.43,4.65-1.28l1.62-1.03
		V-802.39z"/>
	<linearGradient id="SVGID_18_" gradientUnits="userSpaceOnUse" x1="296.7599" y1="-813.0274" x2="307.2022" y2="-813.0274">
		<stop  offset="0" style="stop-color:#E73926"/>
		<stop  offset="0.1747" style="stop-color:#ED6B06"/>
		<stop  offset="0.3815" style="stop-color:#FFDE00"/>
		<stop  offset="0.5829" style="stop-color:#2FAA51"/>
		<stop  offset="0.7807" style="stop-color:#0095DB"/>
		<stop  offset="0.9613" style="stop-color:#AD378C"/>
	</linearGradient>
	<path class="st17" d="M299.31-801.72l-2.55-0.93l7.89-21.68l2.55,0.93L299.31-801.72z"/>
	<polygon points="318.74,-813.53 318.74,-812.52 342.47,-802.08 342.47,-805.31 323.24,-813.03 342.47,-820.74 342.47,-823.98 	"/>
	<polygon points="476.35,-812.52 476.35,-813.53 452.62,-823.98 452.62,-820.74 471.84,-813.03 452.62,-805.31 452.62,-802.08 	"/>
	<path d="M365.38-801.49H354v-23.08h2.87v20.58h8.51V-801.49z"/>
	<linearGradient id="SVGID_19_" gradientUnits="userSpaceOnUse" x1="376.9196" y1="-813.0274" x2="387.3618" y2="-813.0274">
		<stop  offset="0" style="stop-color:#E73926"/>
		<stop  offset="0.1747" style="stop-color:#ED6B06"/>
		<stop  offset="0.3815" style="stop-color:#FFDE00"/>
		<stop  offset="0.5829" style="stop-color:#2FAA51"/>
		<stop  offset="0.7807" style="stop-color:#0095DB"/>
		<stop  offset="0.9613" style="stop-color:#AD378C"/>
	</linearGradient>
	<path class="st18" d="M379.47-801.72l-2.55-0.93l7.89-21.68l2.55,0.93L379.47-801.72z"/>
	<path d="M412.99-820.54l-2.46,1.15c-0.23-0.96-0.78-1.73-1.65-2.32c-0.87-0.59-1.83-0.89-2.87-0.89c-0.77,0-1.45,0.15-2.03,0.45
		c-0.58,0.3-1.06,0.8-1.43,1.48c-0.25,0.56-0.37,1.13-0.37,1.71c0,1.39,0.65,2.44,1.96,3.15l5.92,2.18c1.08,0.6,1.91,1.42,2.48,2.44
		c0.57,1.03,0.86,2.12,0.86,3.28c0,1-0.2,1.95-0.61,2.86c-0.41,0.91-1.01,1.72-1.82,2.43c-1.45,1.02-3.09,1.52-4.9,1.52
		c-1.62,0-3.11-0.41-4.46-1.22c-0.73-0.54-1.28-1.15-1.67-1.82c-0.39-0.67-0.73-1.55-1.04-2.63l2.53-1.28c0,1.31,0.47,2.4,1.4,3.27
		c0.94,0.87,2.04,1.31,3.31,1.31c0.5,0,0.99-0.08,1.48-0.23c0.49-0.15,0.97-0.41,1.43-0.76c0.47-0.35,0.84-0.83,1.12-1.43
		c0.28-0.6,0.42-1.23,0.42-1.9c0-0.99-0.22-1.73-0.67-2.21c-0.45-0.48-0.8-0.8-1.06-0.96c-0.26-0.17-0.79-0.42-1.58-0.78l-3.99-1.4
		c-1.18-0.56-2.14-1.32-2.87-2.29c-0.73-0.97-1.09-2.06-1.09-3.29c0-0.31,0.08-0.88,0.23-1.7c0.16-0.82,0.65-1.69,1.48-2.6
		c0.83-0.91,1.74-1.47,2.73-1.67c0.99-0.2,1.87-0.3,2.63-0.3c0.33,0,0.59,0.01,0.78,0.03c0.19,0.02,0.67,0.11,1.45,0.26
		c0.78,0.16,1.61,0.61,2.49,1.36C412.02-822.57,412.64-821.64,412.99-820.54z"/>
	<path d="M441.09-822.13h-6.64v20.64h-2.87v-20.64h-6.64v-2.43h16.15V-822.13z"/>
	<path d="M129.84-824.53l-8.26,23.25l-0.82,0l-5.66-17.81l-5.57,17.81l-0.79-0.01l-8.67-23.25h3.05l5.91,17.98l5.76-18.22h0.67
		l5.82,18.22l5.67-17.98H129.84z"/>
	<path d="M154-801.4h-12.63v-23.26H154v2.51h-9.84v6.88H154v2.39h-9.84v8.96H154V-801.4z"/>
	<path d="M178.11-815.91c-0.61,1.06-1.52,1.77-2.73,2.12c1.4,0.27,2.5,0.97,3.28,2.08c0.79,1.11,1.18,2.37,1.18,3.78
		c0,1.05-0.2,2.03-0.61,2.93c-0.41,0.9-1.02,1.67-1.84,2.3c-0.5,0.31-1.06,0.58-1.67,0.8c-0.61,0.22-1.23,0.38-1.85,0.49h-8.33
		v-23.26l7.23,0.09c1.68,0,3.11,0.6,4.31,1.81c1.19,1.21,1.79,2.59,1.79,4.16C178.86-817.68,178.61-816.78,178.11-815.91z
		 M175.94-819.18c-0.23-0.98-0.75-1.73-1.56-2.26c-0.81-0.53-1.73-0.79-2.78-0.79h-3.39v7.79h4.34c1.09-0.17,1.94-0.6,2.55-1.31
		c0.61-0.71,0.91-1.58,0.91-2.62c0-0.12-0.01-0.27-0.03-0.44C175.95-818.97,175.94-819.1,175.94-819.18z M175.31-811.32
		c-0.38-0.25-0.8-0.46-1.26-0.62c-0.46-0.16-0.91-0.24-1.35-0.24h-4.49v8.58l5.06-0.06c1.13-0.15,2.02-0.62,2.67-1.43
		c0.65-0.8,0.97-1.75,0.97-2.83c0-0.68-0.13-1.3-0.39-1.87C176.26-810.37,175.86-810.88,175.31-811.32z"/>
</g>
<g id="Capa_4">
	<g>
		<path d="M150.05,20.92l-2.98,1.39c-0.28-1.15-0.94-2.09-2-2.81c-1.05-0.72-2.21-1.07-3.47-1.07c-0.93,0-1.75,0.18-2.45,0.55
			c-0.7,0.36-1.28,0.96-1.73,1.79c-0.3,0.68-0.45,1.37-0.45,2.07c0,1.68,0.79,2.95,2.37,3.81l7.16,2.64
			c1.31,0.73,2.3,1.71,2.99,2.95c0.69,1.24,1.04,2.56,1.04,3.96c0,1.2-0.25,2.36-0.73,3.46c-0.49,1.1-1.22,2.08-2.2,2.93
			c-1.76,1.23-3.73,1.84-5.91,1.84c-1.96,0-3.75-0.49-5.39-1.47c-0.88-0.65-1.55-1.39-2.02-2.2c-0.46-0.82-0.88-1.88-1.26-3.18
			l3.05-1.55c0,1.58,0.57,2.9,1.7,3.96s2.46,1.58,3.99,1.58c0.6,0,1.2-0.09,1.79-0.28c0.59-0.19,1.17-0.49,1.73-0.92
			c0.57-0.42,1.02-1,1.36-1.73c0.34-0.73,0.51-1.49,0.51-2.29c0-1.2-0.27-2.09-0.81-2.66c-0.54-0.58-0.97-0.96-1.28-1.16
			c-0.31-0.2-0.95-0.51-1.9-0.94l-4.82-1.7c-1.43-0.68-2.59-1.6-3.47-2.77c-0.88-1.17-1.32-2.49-1.32-3.97
			c0-0.38,0.09-1.06,0.28-2.05c0.19-0.99,0.78-2.04,1.79-3.14c1-1.1,2.1-1.78,3.3-2.02c1.19-0.24,2.25-0.36,3.18-0.36
			c0.4,0,0.72,0.01,0.94,0.04c0.23,0.03,0.81,0.13,1.75,0.32c0.94,0.19,1.95,0.73,3.01,1.64C148.87,18.47,149.62,19.59,150.05,20.92
			z"/>
		<path d="M180.52,22.98c0,0.45,0,0.78,0,0.98c0,1.95-0.63,3.63-1.88,5.02c-1.25,1.39-2.89,2.19-4.92,2.39h-5.82v12.58h-3.43V16.06
			l9.04,0.11c1.98,0.23,3.65,0.95,4.99,2.16C179.85,19.55,180.52,21.1,180.52,22.98z M174.27,19.49c-0.58-0.2-1.19-0.35-1.85-0.45
			h-4.52v9.53h5.61c1.08-0.33,1.93-0.94,2.56-1.86c0.63-0.91,0.94-1.92,0.94-3.02c0-0.92-0.23-1.76-0.68-2.51
			C175.89,20.43,175.19,19.86,174.27,19.49z"/>
		<path d="M209.6,43.94h-15.14V16.06h15.14v3.01h-11.79v8.25h11.79v2.86h-11.79v10.74h11.79V43.94z"/>
		<path d="M246.4,42.85c-1.31,0.55-2.63,0.98-3.97,1.28c-1.34,0.3-2.71,0.45-4.09,0.45c-1.93,0-3.78-0.31-5.54-0.94
			c-1.76-0.63-3.37-1.58-4.82-2.86c-2.96-3.01-4.44-6.57-4.44-10.66c0-2.66,0.58-4.95,1.75-6.86c1.17-1.91,2.31-3.37,3.43-4.39
			c1.12-1.02,2.18-1.73,3.2-2.15c1.02-0.41,1.85-0.7,2.49-0.85c0.64-0.15,1.29-0.26,1.96-0.34c0.67-0.08,1.31-0.11,1.94-0.11
			c0.93,0,1.91,0.08,2.94,0.24c1.03,0.16,2.06,0.4,3.09,0.7l2.07,0.94V21c-2.34-1.66-4.9-2.49-7.68-2.49
			c-1.88,0-3.64,0.38-5.27,1.15c-1.63,0.77-3.04,1.94-4.22,3.52c-0.68,1-1.2,2.1-1.56,3.28c-0.36,1.18-0.55,2.39-0.55,3.62
			c0,2.14,0.53,4.14,1.6,6.01c1.07,1.87,2.54,3.28,4.41,4.22c1.87,0.94,3.77,1.41,5.71,1.41c2.08,0,3.96-0.51,5.61-1.54l1.96-1.24
			V42.85z"/>
		<linearGradient id="SVGID_20_" gradientUnits="userSpaceOnUse" x1="260.331" y1="30" x2="272.9454" y2="30">
			<stop  offset="0" style="stop-color:#E73926"/>
			<stop  offset="0.1747" style="stop-color:#ED6B06"/>
			<stop  offset="0.3815" style="stop-color:#FFDE00"/>
			<stop  offset="0.5829" style="stop-color:#2FAA51"/>
			<stop  offset="0.7807" style="stop-color:#0095DB"/>
			<stop  offset="0.9613" style="stop-color:#AD378C"/>
		</linearGradient>
		<path class="st19" d="M263.41,43.66l-3.08-1.12l9.53-26.2l3.08,1.12L263.41,43.66z"/>
		<polygon points="286.88,29.39 286.88,30.61 315.55,43.23 315.54,39.32 292.32,30 315.54,20.68 315.55,16.77 		"/>
		<polygon points="477.28,30.61 477.28,29.39 448.61,16.77 448.62,20.68 471.84,30 448.62,39.32 448.61,43.23 		"/>
		<path d="M343.23,43.94h-13.75V16.06h3.47v24.86h10.28V43.94z"/>
		<linearGradient id="SVGID_21_" gradientUnits="userSpaceOnUse" x1="357.1653" y1="30" x2="369.7798" y2="30">
			<stop  offset="0" style="stop-color:#E73926"/>
			<stop  offset="0.1747" style="stop-color:#ED6B06"/>
			<stop  offset="0.3815" style="stop-color:#FFDE00"/>
			<stop  offset="0.5829" style="stop-color:#2FAA51"/>
			<stop  offset="0.7807" style="stop-color:#0095DB"/>
			<stop  offset="0.9613" style="stop-color:#AD378C"/>
		</linearGradient>
		<path class="st20" d="M360.25,43.66l-3.08-1.12l9.53-26.2l3.08,1.12L360.25,43.66z"/>
		<path d="M400.74,20.92l-2.98,1.39c-0.28-1.15-0.94-2.09-2-2.81c-1.05-0.72-2.21-1.07-3.47-1.07c-0.93,0-1.75,0.18-2.45,0.55
			c-0.7,0.36-1.28,0.96-1.73,1.79c-0.3,0.68-0.45,1.37-0.45,2.07c0,1.68,0.79,2.95,2.37,3.81l7.16,2.64c1.31,0.73,2.3,1.71,3,2.95
			c0.69,1.24,1.04,2.56,1.04,3.96c0,1.2-0.24,2.36-0.73,3.46c-0.49,1.1-1.22,2.08-2.2,2.93c-1.76,1.23-3.73,1.84-5.91,1.84
			c-1.96,0-3.75-0.49-5.39-1.47c-0.88-0.65-1.55-1.39-2.02-2.2c-0.47-0.82-0.89-1.88-1.26-3.18l3.05-1.55c0,1.58,0.57,2.9,1.7,3.96
			c1.13,1.05,2.46,1.58,3.99,1.58c0.6,0,1.2-0.09,1.79-0.28c0.59-0.19,1.17-0.49,1.73-0.92c0.57-0.42,1.02-1,1.36-1.73
			c0.34-0.73,0.51-1.49,0.51-2.29c0-1.2-0.27-2.09-0.81-2.66c-0.54-0.58-0.97-0.96-1.28-1.16c-0.31-0.2-0.95-0.51-1.9-0.94
			l-4.82-1.7c-1.43-0.68-2.59-1.6-3.47-2.77c-0.88-1.17-1.32-2.49-1.32-3.97c0-0.38,0.09-1.06,0.28-2.05
			c0.19-0.99,0.78-2.04,1.79-3.14c1-1.1,2.1-1.78,3.3-2.02c1.19-0.24,2.25-0.36,3.18-0.36c0.4,0,0.72,0.01,0.94,0.04
			c0.23,0.03,0.81,0.13,1.75,0.32c0.94,0.19,1.95,0.73,3.01,1.64C399.57,18.47,400.31,19.59,400.74,20.92z"/>
		<path d="M434.68,19h-8.02v24.94h-3.47V19h-8.02v-2.94h19.51V19z"/>
		<path d="M58.68,16.1L48.7,44.19l-0.99,0l-6.83-21.51l-6.72,21.52l-0.96-0.01L22.72,16.1h3.68l7.14,21.72l6.96-22.01h0.81
			l7.03,22.01l6.85-21.72H58.68z"/>
		<path d="M87.88,44.05H72.62V15.95h15.26v3.04H76v8.31h11.88v2.89H76v10.82h11.88V44.05z"/>
		<path d="M117,26.52c-0.73,1.28-1.84,2.14-3.3,2.57c1.7,0.33,3.02,1.17,3.97,2.51c0.95,1.34,1.42,2.87,1.42,4.57
			c0,1.27-0.25,2.45-0.74,3.54c-0.49,1.09-1.23,2.02-2.22,2.78c-0.61,0.38-1.28,0.7-2.01,0.97c-0.73,0.27-1.48,0.46-2.24,0.59
			h-10.06V15.95l8.73,0.11c2.02,0,3.76,0.73,5.2,2.19s2.16,3.13,2.16,5.02C117.91,24.38,117.61,25.47,117,26.52z M114.38,22.57
			c-0.28-1.18-0.91-2.09-1.88-2.73c-0.97-0.64-2.09-0.96-3.36-0.96h-4.1v9.41h5.24c1.32-0.2,2.34-0.73,3.08-1.58
			c0.73-0.85,1.1-1.91,1.1-3.16c0-0.15-0.01-0.33-0.04-0.53C114.39,22.82,114.38,22.67,114.38,22.57z M113.62,32.06
			c-0.46-0.31-0.96-0.56-1.52-0.75c-0.56-0.19-1.1-0.29-1.63-0.29h-5.43v10.36l6.11-0.08c1.37-0.18,2.44-0.75,3.23-1.73
			c0.78-0.97,1.18-2.11,1.18-3.42c0-0.82-0.16-1.57-0.47-2.26C114.76,33.21,114.28,32.6,113.62,32.06z"/>
	</g>
	<g>
	</g>
	<g>
	</g>
	<g>
	</g>
	<g>
	</g>
	<g>
	</g>
	<g>
	</g>
</g>
</svg>
